# Blender v2.78 (sub 0) OBJ File: 'average_face.blend'
# www.blender.org
mtllib average_face.mtl
o eye-#_l
v -44.826027 50.681534 84.169395
v -37.281052 56.219566 94.819397
v -27.073143 56.219566 94.808105
v -17.752880 49.020126 89.112671
v -27.516964 47.081810 94.808105
v -37.724873 47.081810 94.819397
vn 0.0011 -0.0001 1.0000
vn 0.5073 -0.0246 0.8614
vn -0.8250 0.0401 0.5637
usemtl None
s off
f 5//1 3//1 2//1 6//1
f 4//2 3//2 5//2
f 2//3 1//3 6//3
o mouth.003
v -21.358936 -17.436285 91.880135
v -6.268987 -17.159384 99.832649
v 0.000000 -17.713186 105.399406
v 6.601853 -16.605579 99.832649
v 20.804159 -17.436285 91.880135
v 6.601853 -17.436285 99.832649
v 0.000000 -18.543890 105.399406
v -6.268987 -17.713186 99.832649
v -24.854036 -16.605577 87.261314
v -14.646127 -14.113463 98.941971
v -5.769687 -11.898249 105.125847
v 0.554778 -13.559658 110.279076
v 6.657331 -11.621346 105.125847
v 15.533773 -13.559658 98.941971
v 25.741678 -16.605577 87.261314
v 15.533773 -23.251219 98.941971
v 7.544975 -26.020237 105.125847
v 0.554778 -26.574038 110.279076
v -5.769687 -25.743336 105.125847
v -14.646127 -23.528122 98.941971
vn 0.5049 0.4834 0.7151
vn -0.5561 0.4184 0.7181
vn -0.4108 0.4724 0.7798
vn -0.7959 -0.2260 0.5616
vn -0.7569 0.2256 0.6133
vn -0.3179 -0.6816 0.6591
vn -0.5919 -0.5600 0.5796
vn 0.5879 -0.6190 0.5208
vn 0.3050 -0.7082 0.6367
vn 0.6781 -0.3002 0.6709
vn 0.6208 0.3112 0.7196
vn 0.4124 0.5187 0.7489
usemtl None
s off
f 13//4 24//4 23//4 12//4
f 14//5 25//5 24//5 13//5
f 7//6 26//6 25//6 14//6
f 15//7 26//7 7//7
f 15//8 7//8 16//8
f 8//9 17//9 16//9 7//9
f 9//10 18//10 17//10 8//10
f 10//11 19//11 18//11 9//11
f 11//12 20//12 19//12 10//12
f 20//13 11//13 21//13
f 21//14 11//14 22//14
f 12//15 23//15 22//15 11//15
o brow-#_l.002
v -59.472157 60.373093 74.836319
v -51.927177 70.064651 92.013748
v -39.056339 72.833672 96.880692
v -25.297855 70.895355 103.465370
v -12.427017 66.464928 107.187149
v -35.949585 63.419010 91.011734
vn -0.2870 -0.7749 0.5632
vn -0.1836 -0.5629 0.8058
vn -0.4175 -0.5759 0.7028
vn -0.4049 -0.5886 0.6997
usemtl None
s off
f 28//16 27//16 32//16
f 29//17 28//17 32//17
f 30//18 29//18 32//18
f 31//19 30//19 32//19
o nose-base.004
v 0.000000 54.004353 105.469406
v 0.000000 40.436172 110.622635
v 0.000000 27.144890 116.462952
v 0.000000 13.853608 121.272629
v -14.202307 6.100359 98.048744
v -7.101153 3.885146 101.827782
v 0.000000 2.223736 106.293915
v 7.988797 4.162047 101.827782
v 15.089951 6.931065 98.048744
vn -0.4955 -0.6861 0.5327
vn 0.4714 -0.6966 0.5409
vn -0.4971 -0.6849 0.5327
vn 0.5397 -0.6437 0.5426
vn -0.8649 0.1708 0.4719
vn -0.8722 0.1968 0.4478
vn -0.8601 0.1811 0.4769
vn 0.8430 0.1910 0.5028
vn 0.8560 0.2079 0.4732
vn 0.8485 0.1801 0.4976
usemtl None
s off
f 38//20 39//20 36//20
f 39//21 40//21 36//21
f 38//22 36//22 37//22
f 41//23 36//23 40//23
f 36//24 35//24 37//24
f 35//25 34//25 37//25
f 34//26 33//26 37//26
f 33//27 34//27 41//27
f 35//28 41//28 34//28
f 36//29 41//29 35//29
o eye-r.003
v 16.865236 49.573925 89.112671
v 25.741676 57.050274 94.808105
v 35.505764 57.327175 94.819397
v 43.494560 52.066040 84.169395
v 36.393410 48.189419 94.819397
v 26.185501 47.912514 94.808105
vn -0.5246 -0.0255 0.8510
vn -0.0011 -0.0001 1.0000
vn 0.8158 0.0793 0.5728
usemtl None
s off
f 43//30 42//30 47//30
f 46//31 44//31 43//31 47//31
f 45//32 44//32 46//32
o brow-r.005
v 10.651730 67.018738 107.187149
v 23.078747 72.556770 103.465370
v 35.949589 74.495079 96.880692
v 49.264248 72.833672 92.013748
v 57.696865 63.419014 74.836319
v 34.174297 65.218872 91.011734
vn 0.4468 -0.5378 0.7149
vn 0.4517 -0.5323 0.7160
vn 0.2249 -0.5513 0.8034
vn 0.3380 -0.7454 0.5745
usemtl None
s off
f 50//33 49//33 53//33
f 49//34 48//34 53//34
f 51//35 50//35 53//35
f 52//36 51//36 53//36
